<?xml version="1.0" ?><svg style="enable-background:new 0 0 24 24;" version="1.1" viewBox="0 0 24 24" xml:space="preserve" xmlns="http://www.w3.org/2000/svg" xmlns:xlink="http://www.w3.org/1999/xlink"><g id="Layer_1"><g id="Layer_2"/></g><g id="play"/><g id="pause"/><g id="stop"/><g id="next"/><g id="previous"/><g id="fast_forward"/><g id="previous_1_"/><g id="fast_15s"/><g id="backwards_10s"/><g id="fast_10s"/><g id="backwards_15s"/><g id="restart"/><g id="_x31_:2_Ratio"/><g id="HD"/><g id="FHD"/><g id="UHD"/><g id="_x34_k"/><g id="Fullscreen"/><g id="share_screen"/><g id="smart_device"/><g id="smart_device_1_"/><g id="library"/><g id="download"/><g id="history"/><g id="playlist"/><g id="humor"/><g id="movie"/><g id="add_movie"/><g id="add_device"/><g id="add_to_playlist"/><g id="clapper"/><g id="tv_series"/><g id="video_clip"/><g id="horror"/><g id="Documentary"/><g id="sci-fi"/><g id="Drama"/><g id="live"/><g id="survival"/><g id="Romance"/><g id="Triller"/><g id="Musical"/><g id="Superheroes"/><g id="science"/><g id="history_1_"/><g id="action"/><g id="tv_series_1_"/><g id="adventure"/><g id="kids"/><g id="best_movie"/><g id="actor"/><g id="sport"/><g id="Subtitle"/><g id="Layer_56"/><g id="Speed"/><g id="Timer"><path d="M16.7,5l-2,2c-0.4,0.4-0.4,1,0,1.4c0.2,0.2,0.4,0.3,0.7,0.3c0.3,0,0.5-0.1,0.7-0.3l2.7-2.8c0.2-0.2,0.3-0.5,0.3-0.7   c0-0.3-0.1-0.5-0.3-0.7L16,1.7c-0.4-0.4-1-0.3-1.4,0.1c-0.4,0.4-0.3,1,0.1,1.4L16.7,5z"/><path d="M8.4,21c1.2,0.5,2.4,0.8,3.6,0.8c1,0,2-0.2,3-0.5c2.6-0.9,4.6-2.9,5.5-5.5c0.4-1,0.5-2.2,0.5-3.3c0-0.9-0.2-1.8-0.5-2.7   c-0.2-0.5-0.8-0.8-1.3-0.6c-0.5,0.2-0.8,0.8-0.6,1.3c0.2,0.7,0.4,1.4,0.4,2.1c0,0.9-0.1,1.8-0.4,2.6c-0.7,2-2.3,3.6-4.3,4.3   c-1.7,0.6-3.5,0.5-5.1-0.2c-1.8-0.8-3.1-2.2-3.8-4.1C4.1,11.5,6,7.5,9.7,6.2c0.7-0.3,1.5-0.4,2.3-0.4l-1.2,1.1   c-0.4,0.4-0.4,1,0,1.4c0.2,0.2,0.5,0.3,0.7,0.3c0.3,0,0.5-0.1,0.7-0.3L15,5.6c0.2-0.2,0.3-0.5,0.3-0.7S15.1,4.4,15,4.2l-2.7-2.6   c-0.4-0.4-1-0.4-1.4,0c-0.4,0.4-0.4,1,0,1.4l0.8,0.7C10.7,3.8,9.9,4,9,4.3C4.3,6,1.9,11.1,3.5,15.8C4.3,18.1,6.1,20,8.4,21z"/><polygon points="10.4,16 10.4,10.3 8.2,10.3 8.2,11.5 9,11.5 9,16  "/><path d="M13.7,14.8c-0.2,0-0.4-0.1-0.5-0.2c-0.1-0.1-0.2-0.2-0.2-0.4h-1.3c0,0.3,0.1,0.6,0.3,0.9c0.2,0.3,0.4,0.5,0.7,0.6   c0.3,0.1,0.7,0.2,1.1,0.2c0.6,0,1.1-0.2,1.5-0.5c0.4-0.4,0.5-0.8,0.5-1.5c0-0.3-0.1-0.6-0.2-0.9c-0.1-0.3-0.3-0.5-0.6-0.7   c-0.3-0.2-0.6-0.3-1-0.3c-0.2,0-0.4,0-0.6,0.1c-0.2,0.1-0.3,0.2-0.4,0.3v-1.1h2.5v-1.2h-3.7v3.4H13c0-0.1,0.1-0.3,0.2-0.3   c0.1-0.1,0.3-0.1,0.4-0.1c0.2,0,0.4,0.1,0.6,0.2s0.2,0.3,0.2,0.6c0,0.3-0.1,0.5-0.2,0.6C14.2,14.8,14,14.8,13.7,14.8z"/></g></svg>