<?xml version="1.0" ?><svg style="enable-background:new 0 0 24 24;" version="1.1" viewBox="0 0 24 24" xml:space="preserve" xmlns="http://www.w3.org/2000/svg" xmlns:xlink="http://www.w3.org/1999/xlink"><g id="Layer_1"><g id="Layer_2"/></g><g id="play"/><g id="pause"/><g id="stop"/><g id="next"/><g id="previous"/><g id="fast_forward"/><g id="previous_1_"/><g id="fast_15s"/><g id="backwards_10s"/><g id="fast_10s"/><g id="backwards_15s"/><g id="restart"/><g id="_x31_:2_Ratio"/><g id="HD"/><g id="FHD"/><g id="UHD"/><g id="_x34_k"/><g id="Fullscreen"/><g id="share_screen"/><g id="smart_device"/><g id="smart_device_1_"/><g id="library"/><g id="download"/><g id="history"/><g id="playlist"/><g id="humor"/><g id="movie"/><g id="add_movie"/><g id="add_device"/><g id="add_to_playlist"/><g id="clapper"/><g id="tv_series"/><g id="video_clip"/><g id="horror"/><g id="Documentary"/><g id="sci-fi"/><g id="Drama"/><g id="live"/><g id="survival"/><g id="Romance"/><g id="Triller"/><g id="Musical"/><g id="Superheroes"/><g id="science"/><g id="history_1_"/><g id="action"/><g id="tv_series_1_"/><g id="adventure"/><g id="kids"/><g id="best_movie"/><g id="actor"/><g id="sport"/><g id="Subtitle"/><g id="Layer_56"/><g id="Speed"/><g id="Timer"><path d="M7.3,5l2-1.8c0.4-0.4,0.4-1,0.1-1.4C9,1.4,8.4,1.3,8,1.7L5.2,4.2C5,4.4,4.9,4.7,4.9,4.9c0,0.3,0.1,0.5,0.3,0.7l2.7,2.8   c0.2,0.2,0.5,0.3,0.7,0.3c0.3,0,0.5-0.1,0.7-0.3c0.4-0.4,0.4-1,0-1.4L7.3,5z"/><path d="M3.5,9.8C3.2,10.7,3,11.6,3,12.5c0,1.1,0.1,2.3,0.5,3.3c0.9,2.6,2.9,4.6,5.5,5.5c1,0.3,2,0.5,3,0.5c1.2,0,2.5-0.3,3.6-0.8   c2.3-1,4.1-2.9,4.9-5.2c0.8-2.3,0.7-4.7-0.4-6.9S17.3,5.1,15,4.3c-0.9-0.3-1.7-0.5-2.6-0.5l0.8-0.7c0.4-0.4,0.4-1,0-1.4   c-0.4-0.4-1-0.4-1.4,0L9,4.2C8.9,4.4,8.7,4.6,8.7,4.9S8.8,5.4,9,5.6l2.8,2.7c0.2,0.2,0.4,0.3,0.7,0.3c0.3,0,0.5-0.1,0.7-0.3   c0.4-0.4,0.4-1,0-1.4l-1.2-1.1c0.8,0,1.5,0.1,2.3,0.4c1.8,0.6,3.2,1.9,4,3.6c0.8,1.7,0.9,3.6,0.3,5.4c-0.6,1.8-2,3.3-3.8,4.1   c-1.6,0.7-3.4,0.8-5.1,0.2c-2-0.7-3.6-2.3-4.3-4.3C5.1,14.3,5,13.4,5,12.5c0-0.7,0.2-1.4,0.4-2.1c0.2-0.5-0.1-1.1-0.6-1.3   C4.3,9,3.7,9.3,3.5,9.8z"/><polygon points="10.4,16 10.4,10.3 8.2,10.3 8.2,11.5 9,11.5 9,16  "/><path d="M13.7,14.8c-0.2,0-0.4-0.1-0.5-0.2c-0.1-0.1-0.2-0.2-0.2-0.4h-1.3c0,0.3,0.1,0.6,0.3,0.9c0.2,0.3,0.4,0.5,0.7,0.6   c0.3,0.1,0.7,0.2,1.1,0.2c0.6,0,1.1-0.2,1.5-0.5c0.4-0.4,0.5-0.8,0.5-1.5c0-0.3-0.1-0.6-0.2-0.9c-0.1-0.3-0.3-0.5-0.6-0.7   c-0.3-0.2-0.6-0.3-1-0.3c-0.2,0-0.4,0-0.6,0.1c-0.2,0.1-0.3,0.2-0.4,0.3v-1.1h2.5v-1.2h-3.7v3.4H13c0-0.1,0.1-0.3,0.2-0.3   c0.1-0.1,0.3-0.1,0.4-0.1c0.2,0,0.4,0.1,0.6,0.2s0.2,0.3,0.2,0.6c0,0.3-0.1,0.5-0.2,0.6C14.2,14.8,14,14.8,13.7,14.8z"/></g></svg>